<svg width="88" height="101" viewBox="0 0 88 101" fill="none" xmlns="http://www.w3.org/2000/svg">
<g clip-path="url(#clip0_10_744)">
<path d="M77.4646 29.9264C78.7087 30.0915 79.7441 30.6304 80.437 31.7316C81.504 33.4228 81.0276 35.7197 79.374 36.8445C77.6614 38.0048 75.3622 37.5997 74.1536 35.9242C72.9685 34.2802 73.315 31.944 74.9449 30.7366C75.2362 30.5202 75.3386 30.3511 75.2402 29.9696C73.4685 23.0986 70.0118 17.207 64.878 12.3143C60.0394 7.70085 54.3386 4.64883 47.8386 3.10315C44.7992 2.37947 41.7008 2.05303 38.5788 2.14349C33.9606 2.27328 29.5 3.18967 25.2284 4.9792C24.8229 5.14832 24.6142 5.32137 24.6299 5.83266C24.6851 7.77164 23.3544 9.34092 21.4528 9.66736C19.6496 9.982 17.8544 8.85323 17.252 7.0283C16.5551 4.9202 18.0158 2.56432 20.2008 2.21035C21.4055 2.01763 22.4528 2.31654 23.3622 3.09921C23.5945 3.2998 23.7638 3.28407 24.0118 3.17394C27.2441 1.75412 30.6181 0.829861 34.1063 0.350032C36.7126 -0.011806 39.3347 -0.0786673 41.9646 0.0865196C46.7756 0.389362 51.3898 1.50241 55.7402 3.56724C66.2481 8.55825 73.2835 16.6091 76.8189 27.6924C77.0512 28.42 77.2441 29.1633 77.4607 29.9264H77.4646ZM77.2284 32.1171C76.2874 32.1171 75.6142 32.7896 75.6142 33.7296C75.6142 34.6263 76.3347 35.3618 77.2284 35.3697C78.0984 35.3775 78.8662 34.6106 78.8701 33.7296C78.8701 32.8407 78.1339 32.1131 77.2284 32.1171ZM20.8858 4.29879C19.9803 4.29092 19.2441 4.99886 19.2323 5.90346C19.2205 6.78052 19.9685 7.54746 20.8465 7.55926C21.7284 7.57106 22.4843 6.83165 22.5 5.94279C22.5158 5.04999 21.7874 4.31059 20.8858 4.29879Z" fill="white"/>
<path d="M22.0827 37.4817C18.7559 37.4817 15.4291 37.4856 12.0984 37.4738C11.748 37.4738 11.5906 37.5761 11.4528 37.9065C10.7559 39.5623 8.94882 40.4826 7.20079 40.109C5.44882 39.7353 4.19685 38.1621 4.21654 36.3608C4.23622 34.5752 5.49213 33.061 7.2441 32.707C8.99213 32.3531 10.7205 33.2458 11.4528 34.9134C11.5906 35.2281 11.752 35.3186 12.0748 35.3186C18.626 35.3107 25.1772 35.3068 31.7244 35.3146C33.2598 35.3146 34.4961 34.7129 35.4961 33.5723C36.9528 31.9165 38.4094 30.2646 39.874 28.6167C41.3386 26.9648 43.1772 26.1467 45.3858 26.1507C47.1378 26.1546 48.8898 26.1428 50.6417 26.1585C51.0039 26.1585 51.1811 26.0602 51.3307 25.7102C51.9685 24.2156 53.5197 23.2992 55.0669 23.4487C56.7441 23.6139 58.0787 24.7545 58.4646 26.3513C58.9134 28.1958 57.8622 30.123 56.0551 30.772C54.2283 31.4288 52.185 30.6147 51.3819 28.8409C51.1693 28.3728 50.9331 28.2509 50.4528 28.2588C48.8228 28.2863 47.1968 28.2745 45.5669 28.2706C43.8819 28.2666 42.4803 28.8605 41.3661 30.1584C39.9409 31.8182 38.4803 33.4464 37.0236 35.0747C35.6063 36.6597 33.8268 37.4699 31.6969 37.4778C28.4921 37.4896 25.2874 37.4778 22.0827 37.4778V37.4817ZM7.97638 38.0205C8.89764 38.0205 9.61417 37.3283 9.61811 36.4198C9.61811 35.5231 8.88977 34.7719 8.00788 34.764C7.12599 34.7561 6.37008 35.5073 6.36221 36.3883C6.35433 37.289 7.07481 38.0127 7.98032 38.0166L7.97638 38.0205ZM56.3858 27.2244C56.3858 26.2962 55.7047 25.6119 54.7717 25.6119C53.8504 25.6119 53.1378 26.308 53.1378 27.2205C53.1378 28.1133 53.8661 28.8487 54.7638 28.8566C55.6496 28.8645 56.3819 28.129 56.3858 27.2283V27.2244Z" fill="white"/>
<path d="M51.1378 88.2452C53.1496 89.0082 54.1142 90.6522 53.7638 92.6738C53.4843 94.2824 51.8858 95.6236 50.2284 95.6472C48.252 95.6747 46.689 94.4515 46.3386 92.5283C46.0394 90.8921 46.8228 89.0161 49.0118 88.2255C49.0118 87.73 49.0118 87.2226 49.0118 86.7192C49.0118 82.8727 49.0748 79.0223 48.9921 75.1758C48.9292 72.4148 51.1142 70.0156 54.1614 70.0432C58.2756 70.0786 62.3937 70.0117 66.5079 70.0746C68.2992 70.1022 69.5079 68.7099 69.4292 67.1642C69.3819 66.2399 69.4016 65.3118 69.4292 64.3836C69.441 64.0296 69.3268 63.8801 68.9961 63.7385C67.311 63.0227 66.4134 61.2332 66.7992 59.4398C67.1536 57.7958 68.7323 56.5175 70.437 56.4939C72.2441 56.4703 73.8032 57.725 74.2087 59.5302C74.5866 61.2135 73.6496 63.0503 72.0079 63.7307C71.6181 63.8919 71.5354 64.0886 71.5433 64.4662C71.563 65.5163 71.5748 66.5664 71.5394 67.6126C71.4488 70.1769 69.3386 72.2221 66.7638 72.2299C62.4725 72.2417 58.1811 72.2299 53.8937 72.2339C52.4016 72.2339 51.1693 73.3548 51.1575 74.8375C51.126 79.2976 51.1457 83.7576 51.1457 88.2452H51.1378ZM68.8819 60.2539C68.874 61.186 69.6181 61.949 70.5158 61.9333C71.3701 61.9176 72.1063 61.1821 72.1299 60.3168C72.1536 59.428 71.4292 58.6846 70.5236 58.6728C69.5866 58.661 68.8937 59.3296 68.8858 60.2539H68.8819ZM50.0709 90.2786C49.1536 90.2746 48.4331 90.9747 48.4252 91.8715C48.4173 92.7485 49.1654 93.5037 50.0512 93.5155C50.941 93.5233 51.6732 92.7957 51.6772 91.8911C51.6772 90.9551 51.0118 90.2825 50.0709 90.2786Z" fill="white"/>
<path d="M24.8504 65.2016C24.8504 62.9441 24.8504 60.6904 24.8504 58.4329C24.8543 55.5303 27.2047 53.1548 30.1102 53.139C33.437 53.1233 36.7638 53.1272 40.0945 53.139C41.4567 53.143 42.5709 53.6936 43.3937 54.7791C44.2677 55.9354 45.1339 57.0996 45.9724 58.2834C46.2008 58.6059 46.4094 58.6728 46.7913 58.5902C48.3464 58.252 49.6417 58.7436 50.5945 59.9904C51.5354 61.2253 51.6496 62.6019 50.9449 63.9824C50.2244 65.3865 49.0118 66.0669 47.437 66.0315C44.6299 65.9686 42.9055 62.8497 44.3228 60.3915C44.5118 60.0612 44.5039 59.8527 44.2835 59.5656C43.5118 58.5509 42.7205 57.544 42.0157 56.4821C41.4291 55.605 40.6811 55.2589 39.6339 55.2707C36.622 55.3101 33.6102 55.2865 30.5984 55.2865C30.4055 55.2865 30.2126 55.2865 30.0197 55.3022C28.2756 55.4241 27.0039 56.7024 26.9961 58.4408C26.9764 63.1092 26.9921 67.7817 26.9803 72.4502C26.9803 72.7884 27.1535 72.8749 27.4094 72.9969C28.8937 73.6969 29.7087 74.869 29.685 76.513C29.6614 78.1098 28.8701 79.2661 27.4055 79.919C25.5354 80.7528 23.311 79.8797 22.4646 78.0115C21.6102 76.1236 22.4488 73.8621 24.3543 73.0401C24.7677 72.8592 24.8661 72.639 24.8583 72.2299C24.8346 71.0579 24.8504 69.8858 24.8504 68.7138C24.8504 67.5418 24.8504 66.3697 24.8504 65.1977V65.2016ZM24.2953 76.4383C24.2835 77.3429 25.0039 78.0901 25.8898 78.1059C26.7598 78.1177 27.5433 77.3704 27.5709 76.4973C27.5945 75.6399 26.8228 74.8533 25.9488 74.8454C25.0276 74.8375 24.3071 75.5297 24.2953 76.4383ZM45.9646 62.2401C45.9567 63.1328 46.6811 63.8919 47.5669 63.9116C48.4291 63.9313 49.2205 63.1604 49.2323 62.2912C49.248 61.4023 48.5157 60.655 47.6142 60.6432C46.7047 60.6314 45.9724 61.3394 45.9646 62.2401Z" fill="white"/>
<path d="M9.66928 13.6633C8.59054 11.512 9.55118 9.56511 10.8622 8.68018C12.3228 7.69693 14.2874 7.83458 15.5512 9.03022C16.8858 10.2888 17.1575 12.2278 16.2165 13.7656C15.2795 15.2916 13.4213 15.9681 11.748 15.3506C11.3504 15.2011 11.1693 15.3073 10.9252 15.6023C7.29527 20.0191 4.78346 24.9983 3.47244 30.5596C2.66535 33.9734 2.3307 37.4384 2.54724 40.9585C2.69291 43.338 3.02362 45.6781 3.58267 47.9907C3.66929 48.3447 3.80314 48.4666 4.16141 48.4981C5.84251 48.6358 7.29133 50.0005 7.5118 51.617C7.7559 53.4222 6.8307 55.082 5.21653 55.7349C3.52755 56.4192 1.57873 55.8057 0.59842 54.2875C-0.397643 52.7379 -0.149612 50.7124 1.23228 49.4735C1.55118 49.1864 1.62204 48.9583 1.51574 48.5414C0.496057 44.569 0.165349 40.5298 0.429128 36.4355C0.877947 29.4859 3.07873 23.1301 6.95275 17.3525C7.79921 16.0939 8.74803 14.9022 9.65747 13.6633H9.66928ZM14.626 11.8187C14.6417 10.9338 13.9016 10.1865 13 10.1826C12.0866 10.1787 11.3622 10.8866 11.3583 11.7912C11.3543 12.6801 12.0945 13.4391 12.9764 13.447C13.8504 13.4549 14.6142 12.6997 14.626 11.8187ZM5.40551 52.2699C5.41338 51.3574 4.70866 50.6259 3.81495 50.6141C2.90944 50.6023 2.17322 51.3141 2.16141 52.2109C2.1496 53.1194 2.85826 53.8549 3.7559 53.8667C4.66141 53.8785 5.39763 53.1666 5.40551 52.2699Z" fill="white"/>
<path d="M80.2638 66.885C80.2638 69.0009 80.2756 71.1169 80.2559 73.2329C80.2559 73.634 80.3504 73.8346 80.7441 74.0037C82.4055 74.7196 83.2717 76.4855 82.8858 78.275C82.5236 79.9623 80.9606 81.213 79.2087 81.2208C77.4488 81.2326 75.8937 79.978 75.5079 78.2357C75.122 76.5012 75.9961 74.7195 77.6417 74.0116C78.0591 73.8307 78.1496 73.6065 78.1457 73.1975C78.1339 68.9459 78.185 64.6982 78.1142 60.4466C78.0827 58.5588 79.5906 56.8676 81.6102 56.9856C82.4764 57.0367 83.3622 57.0013 84.2244 56.8912C85.5 56.726 86.1142 55.7073 85.7244 54.4802C85.5748 54.0043 85.3701 53.5284 85.1024 53.1076C83.7362 50.9759 82.3386 48.8639 80.9646 46.74C80.7992 46.4844 80.6614 46.3979 80.3347 46.4647C78.252 46.8738 76.248 45.5837 75.8346 43.5936C75.4094 41.5524 76.6496 39.6095 78.7126 39.0864C80.9134 38.5318 83.2402 40.3056 83.3032 42.5632C83.3268 43.4127 83.1693 44.1993 82.6654 44.8876C82.4646 45.159 82.6024 45.3241 82.7402 45.5326C84.1654 47.7115 85.6024 49.8864 87.0039 52.0811C87.7756 53.2924 88.2087 54.6061 87.8898 56.0652C87.5158 57.78 85.9016 59.0425 84.0157 59.1055C83.2283 59.133 82.4409 59.1133 81.6535 59.1173C80.7047 59.1173 80.2677 59.542 80.2638 60.482C80.2598 61.5479 80.2638 62.6137 80.2638 63.6835C80.2638 64.7533 80.2638 65.8152 80.2638 66.885ZM79.185 79.0616C80.0787 79.0655 80.8268 78.3419 80.8504 77.453C80.8701 76.5917 80.1024 75.809 79.2244 75.8011C78.315 75.7933 77.5984 76.5012 77.5906 77.4137C77.5827 78.3379 78.2756 79.0537 79.185 79.0616ZM79.5394 41.163C78.622 41.163 77.9331 41.8631 77.9331 42.7913C77.9331 43.7037 78.6535 44.4195 79.5551 44.4156C80.441 44.4077 81.185 43.6605 81.1772 42.7755C81.1693 41.8788 80.4409 41.163 79.5354 41.1669L79.5394 41.163Z" fill="white"/>
<path d="M68.6732 45.9456C67.0511 44.3291 65.4449 42.6969 63.8031 41.1001C62.248 39.5898 61.5 37.7845 61.5118 35.6175C61.5354 31.7159 61.496 27.8183 61.5315 23.9167C61.5472 22.1901 61.0039 20.7506 59.7323 19.5629C58.7598 18.6543 57.8386 17.6947 56.9134 16.7429C56.6889 16.5108 56.5078 16.4715 56.1929 16.5974C54.0866 17.4272 51.8149 16.3338 51.1535 14.1982C50.563 12.2868 51.6299 10.1944 53.5236 9.54938C55.4724 8.8847 57.5748 9.84829 58.2992 11.744C58.6575 12.6801 58.6417 13.6319 58.2638 14.5522C58.1378 14.859 58.1968 15.0163 58.4094 15.2247C59.4449 16.2434 60.4685 17.2738 61.496 18.3004C62.9252 19.728 63.6614 21.435 63.6535 23.4683C63.6417 27.5272 63.6535 31.5822 63.6456 35.6411C63.6456 37.1317 64.1338 38.406 65.1968 39.46C66.748 41.0018 68.2952 42.5474 69.8346 44.097C70.0787 44.3448 70.2716 44.4314 70.6378 44.2858C72.6653 43.4678 75.0197 44.5926 75.6181 46.626C76.2677 48.8363 75 50.9956 72.7756 51.4597C71.2834 51.7704 70.0354 51.3063 69.0866 50.146C68.0551 48.8835 68.0157 47.4755 68.6771 45.9456H68.6732ZM73.6299 47.7823C73.6299 46.8816 72.9055 46.1462 72.0078 46.1422C71.1299 46.1383 70.37 46.8974 70.3661 47.7784C70.3661 48.6515 71.1299 49.4184 72.0039 49.4184C72.8976 49.4184 73.626 48.679 73.626 47.7823H73.6299ZM54.7834 14.7213C55.7086 14.7174 56.3897 14.0252 56.3858 13.093C56.3819 12.1924 55.6456 11.4608 54.7559 11.4726C53.8622 11.4844 53.1338 12.2278 53.1378 13.1206C53.1456 14.0252 53.8661 14.7252 54.7834 14.7213Z" fill="white"/>
<path d="M11.8386 60.4466C11.6496 61.0051 11.4961 61.6305 11.2244 62.2007C11.067 62.535 11.0827 62.7238 11.3229 62.9716C12.4016 64.0689 13.4488 65.1977 14.5433 66.2793C17.0591 68.765 18.2205 71.7462 17.6851 75.2584C17.3425 77.512 16.7992 79.7381 16.3307 81.972C15.8229 84.3948 15.2992 86.8136 14.7796 89.2324C14.4843 90.6129 14.2126 91.9973 13.8898 93.3699C13.7992 93.7514 13.8544 93.956 14.1851 94.1841C15.5709 95.1477 16.1103 96.9254 15.5355 98.5104C14.9567 100.107 13.4134 101.102 11.6772 100.996C10.063 100.898 8.62601 99.6431 8.28349 98.0384C7.84255 95.9657 9.12208 93.9796 11.2126 93.5469C11.5827 93.4683 11.7323 93.2913 11.8032 92.953C13.0473 87.0142 14.3347 81.0871 15.5237 75.1365C16.0197 72.6468 15.3347 70.3696 13.6418 68.47C12.2953 66.9558 10.8544 65.5241 9.43704 64.0729C9.33074 63.9667 9.05515 63.9588 8.87798 63.9981C6.62995 64.4937 4.5394 63.0857 4.21656 60.8478C3.95278 59.0189 5.10239 57.2097 6.85436 56.7063C8.7205 56.1675 10.6851 57.0642 11.4134 58.8301C11.6103 59.3021 11.6772 59.8291 11.8307 60.4427L11.8386 60.4466ZM6.35042 60.2972C6.34255 61.2293 7.02365 61.9451 7.9331 61.953C8.83074 61.9648 9.58271 61.245 9.60239 60.3601C9.62208 59.487 8.87798 58.7122 7.99609 58.6964C7.09452 58.6768 6.3583 59.3965 6.34649 60.2972H6.35042ZM11.9961 95.6196C11.0748 95.6157 10.3544 96.3118 10.3465 97.2125C10.3425 98.1014 11.067 98.8447 11.9646 98.8722C12.8268 98.8998 13.6024 98.1289 13.6103 97.244C13.6181 96.3276 12.9174 95.6236 11.9961 95.6196Z" fill="white"/>
<path d="M38.2205 82.9396C38.2205 80.4539 38.2165 77.9722 38.2283 75.4865C38.2283 75.1482 38.1496 74.9752 37.811 74.8297C36.0197 74.0509 35.1535 72.1592 35.689 70.2752C36.1732 68.5644 37.9764 67.3963 39.7874 67.6244C41.6417 67.8564 43.0827 69.4257 43.0866 71.3136C43.0866 72.8986 42.3582 74.106 40.8976 74.7825C40.496 74.9673 40.3937 75.1797 40.3937 75.5966C40.4094 80.4421 40.4055 85.2876 40.4016 90.1331C40.4016 92.898 38.6023 95.0729 35.8976 95.5842C35.6063 95.6393 35.3071 95.6393 35.0079 95.6393C32.311 95.6432 29.6142 95.6472 26.9134 95.6354C26.5393 95.6354 26.3464 95.7062 26.185 96.0955C25.5236 97.6963 23.7165 98.6402 22.0827 98.2941C20.2205 97.9047 18.9645 96.4259 18.9606 94.6206C18.9527 92.8154 20.1693 91.2776 21.9055 90.9039C23.685 90.5185 25.4685 91.3916 26.1811 93.0514C26.3386 93.4171 26.5079 93.5391 26.9016 93.5351C29.5472 93.5155 32.1929 93.5312 34.8346 93.5233C36.5039 93.5194 37.7086 92.6227 38.1299 91.0652C38.2047 90.7859 38.2126 90.4792 38.2126 90.1842C38.2205 87.7693 38.2126 85.3544 38.2165 82.9396H38.2205ZM39.2913 72.989C40.2086 72.9969 40.933 72.2929 40.9409 71.3922C40.9488 70.5034 40.2126 69.7443 39.3267 69.7246C38.4606 69.705 37.685 70.4719 37.6732 71.3529C37.6653 72.2575 38.3779 72.9812 39.2874 72.989H39.2913ZM22.7441 96.1939C23.6693 96.1899 24.3661 95.4898 24.3622 94.5735C24.3582 93.6846 23.6063 92.9334 22.7283 92.9373C21.8582 92.9412 21.0945 93.716 21.1023 94.5892C21.1063 95.4859 21.8386 96.1978 22.748 96.1939H22.7441Z" fill="white"/>
<path d="M16.7205 25.1202C15.1732 25.1202 13.8504 24.251 13.2599 22.839C12.6654 21.4231 12.9725 19.8145 14.0551 18.7172C15.1103 17.6474 16.7323 17.2817 18.1181 17.8638C18.4803 18.0171 18.6654 17.9385 18.9173 17.6828C20.9646 15.618 23.0236 13.5728 25.0788 11.5198C26.5354 10.0685 28.2717 9.32517 30.3465 9.33303C34.1103 9.3527 37.878 9.33303 41.6457 9.34877C42.0394 9.34877 42.2165 9.22684 42.374 8.86894C43.0591 7.28393 44.8583 6.33214 46.437 6.67824C48.4134 7.11481 49.6142 8.56609 49.5866 10.4854C49.5591 12.271 48.315 13.738 46.5197 14.092C44.7992 14.4302 43.1063 13.5807 42.3937 11.9603C42.2166 11.5591 41.9961 11.4529 41.5788 11.4529C37.8662 11.4687 34.1536 11.4687 30.437 11.4608C28.9213 11.4569 27.6457 11.976 26.5788 13.0497C24.5315 15.1067 22.4764 17.1597 20.4095 19.201C20.1614 19.4448 20.1142 19.6336 20.2441 19.9679C21.2402 22.4969 19.437 25.1163 16.7244 25.1123L16.7205 25.1202ZM18.3504 21.3759C18.3504 20.4399 17.6693 19.7516 16.7441 19.7516C15.8504 19.7516 15.1024 20.4792 15.0945 21.3681C15.0866 22.2412 15.8465 22.9964 16.7362 23.0003C17.6417 23.0042 18.3543 22.2923 18.3504 21.3759ZM45.8268 8.77061C44.9331 8.75881 44.1851 9.49429 44.1811 10.391C44.1772 11.2877 44.9055 12.039 45.7914 12.0547C46.6457 12.0704 47.441 11.2917 47.4488 10.4225C47.4567 9.54148 46.7087 8.77848 45.8268 8.77061Z" fill="white"/>
<path d="M58.063 93.5666C58.063 93.3739 58.063 93.1654 58.063 92.957C58.063 89.3543 58.063 85.7517 58.063 82.149C58.063 79.9701 59.5 78.4992 61.6772 78.4284C63.0079 78.3851 64.3346 78.3183 65.6653 78.2947C66.1102 78.2868 66.3189 78.1491 66.4961 77.7165C67.1299 76.1394 68.8386 75.1561 70.3976 75.4C72.2165 75.6792 73.6063 77.099 73.7283 78.7981C73.8583 80.6427 72.8425 82.1884 71.1181 82.7586C69.3464 83.3447 67.4173 82.5266 66.5787 80.8079C66.437 80.5168 66.2913 80.391 65.9528 80.4106C64.4842 80.4893 63.0157 80.5168 61.5472 80.6112C60.6811 80.6663 60.2008 81.1815 60.1968 82.0468C60.1811 85.791 60.1968 89.5313 60.1811 93.2756C60.1811 93.6217 60.4016 93.6571 60.6142 93.7554C62.7598 94.7386 63.5472 97.2558 62.3268 99.2144C61.4646 100.599 59.8661 101.26 58.2401 100.898C56.7598 100.571 55.5512 99.2419 55.3504 97.7199C55.1417 96.1585 55.9842 94.5695 57.4094 93.8537C57.6102 93.7514 57.8228 93.6728 58.0669 93.5666H58.063ZM68.3504 79.156C68.3504 80.0606 69.059 80.8 69.9488 80.8157C70.8031 80.8315 71.5984 80.0488 71.6142 79.1875C71.6299 78.3183 70.8701 77.5553 69.9803 77.5513C69.059 77.5435 68.3543 78.2396 68.3504 79.1599V79.156ZM60.7362 97.2282C60.7362 96.3158 60.0276 95.6157 59.1102 95.6157C58.189 95.6157 57.4842 96.3158 57.4882 97.2243C57.4882 98.1171 58.2362 98.8722 59.1102 98.8683C59.9882 98.8683 60.7402 98.1092 60.7402 97.2243L60.7362 97.2282Z" fill="white"/>
<path d="M51.315 43.397C49.1418 44.4392 47.2166 43.5307 46.3189 42.1896C45.315 40.6871 45.4961 38.6931 46.7599 37.4227C48.0276 36.1524 50.0473 35.9439 51.5276 36.9154C52.815 37.761 53.8307 39.6331 52.811 41.8553C54.3504 43.3891 55.878 44.9505 57.4488 46.4687C58.6103 47.5935 59.6181 48.8049 59.9646 50.4253C60.0906 50.9995 60.1654 51.5973 60.1732 52.1873C60.1969 53.969 60.1851 55.7545 60.1732 57.5362C60.1732 57.8391 60.2559 57.9806 60.5551 58.1065C62.2874 58.8184 63.2047 60.6354 62.7953 62.4761C62.4213 64.1555 60.7599 65.4259 59.0197 65.3629C57.1693 65.3 55.6536 63.9667 55.3544 62.1418C55.0866 60.4978 56.0433 58.779 57.6378 58.1222C57.9725 57.9846 58.0709 57.8273 58.067 57.4772C58.0473 55.7113 58.0748 53.9454 58.0551 52.1794C58.0433 50.8894 57.6221 49.7292 56.7166 48.8049C54.941 46.9918 53.1339 45.2141 51.311 43.397H51.315ZM59.0945 63.2076C60.0236 63.2116 60.7166 62.539 60.7323 61.6108C60.7481 60.7062 60.0315 59.9708 59.1299 59.9629C58.2284 59.955 57.4961 60.6748 57.4882 61.5754C57.4803 62.4879 58.1851 63.1998 59.0945 63.2076ZM49.4646 41.7019C50.3622 41.7019 51.0984 40.9585 51.0906 40.0697C51.0788 39.1808 50.3307 38.4414 49.4449 38.4453C48.5473 38.4493 47.8347 39.1769 47.8386 40.0893C47.8386 41.0057 48.5473 41.7058 49.4646 41.7019Z" fill="white"/>
<path d="M17.433 45.1432C20.8189 45.1432 24.1614 45.1432 27.5078 45.1432C30.0472 45.1432 32.5866 45.1354 35.126 45.1511C35.5 45.1511 35.7047 45.0764 35.87 44.6949C36.5984 42.9958 38.4173 42.1266 40.2362 42.5514C41.8976 42.9407 43.1811 44.6241 43.0984 46.2995C43.0039 48.2031 41.6653 49.7055 39.8267 49.973C38.2165 50.209 36.5354 49.3004 35.8897 47.7941C35.7204 47.3968 35.5236 47.2592 35.0866 47.2631C29.3937 47.2789 23.7047 47.2789 18.0118 47.2631C17.5866 47.2631 17.374 47.3811 17.2008 47.7784C16.5433 49.265 15.1102 50.087 13.433 49.9848C11.9763 49.8983 10.5905 48.7655 10.1417 47.2985C9.58265 45.4657 10.563 43.4363 12.3425 42.7284C14.2008 41.9889 16.2992 42.7755 17.1614 44.5375C17.2519 44.7263 17.3346 44.919 17.433 45.1432ZM39.3307 44.6005C38.4252 44.5887 37.685 45.3084 37.6771 46.2012C37.6693 47.094 38.4015 47.8413 39.2913 47.8531C40.1771 47.8649 40.933 47.1255 40.9409 46.2366C40.9488 45.332 40.2362 44.6083 39.3307 44.5965V44.6005ZM15.4015 46.2248C15.4015 45.3163 14.685 44.5965 13.7795 44.5965C12.8819 44.5965 12.1417 45.3241 12.1417 46.2169C12.1417 47.1058 12.8858 47.857 13.7716 47.857C14.6653 47.857 15.4015 47.1215 15.4015 46.2248Z" fill="white"/>
<path d="M25.8858 31.4013C24.6732 31.3344 23.4921 30.6029 22.8347 29.1122C22.2244 27.7278 22.5039 26.1035 23.5788 25.0376C24.7402 23.8813 26.1221 23.5431 27.6693 24.1409C28.0551 24.2904 28.2559 24.2156 28.5236 23.9443C29.8858 22.5598 31.2638 21.1872 32.6496 19.8264C32.9016 19.5786 32.9882 19.3819 32.8347 19.0162C32.0354 17.0772 33.063 14.8196 35.0433 14.092C37.0394 13.3566 39.2717 14.4499 39.9449 16.4872C40.6063 18.497 39.4252 20.7231 37.374 21.2934C36.5433 21.5215 35.7047 21.494 34.9095 21.1321C34.6299 21.0024 34.4528 21.0377 34.2323 21.2619C32.8189 22.6936 31.3937 24.1134 29.9567 25.5253C29.7244 25.7534 29.6811 25.9344 29.8032 26.249C30.7992 28.7661 28.9882 31.4091 25.8858 31.4091V31.4013ZM36.3465 16.0153C35.4449 16.0153 34.7244 16.735 34.7205 17.6396C34.7205 18.5481 35.437 19.2797 36.3347 19.2797C37.2165 19.2797 37.9843 18.5245 37.9843 17.6514C37.9843 16.7783 37.2284 16.0192 36.3425 16.0153H36.3465ZM26.311 26.0327C25.3937 26.0327 24.6614 26.7406 24.6575 27.6334C24.6536 28.5026 25.4134 29.2735 26.2874 29.2853C27.1654 29.2971 27.9173 28.5498 27.9213 27.657C27.9291 26.7328 27.2362 26.0366 26.311 26.0366V26.0327Z" fill="white"/>
</g>
<defs>
<clipPath id="clip0_10_744">
<rect width="88" height="101" fill="white"/>
</clipPath>
</defs>
</svg>
